<svg width="225" height="48" viewBox="0 0 225 48" fill="none" xmlns="http://www.w3.org/2000/svg">
<path d="M0.8 47H17.115C20.0183 47 22.4667 46.6317 24.46 45.895C26.4533 45.115 28.0567 44.1183 29.27 42.905C30.4833 41.6917 31.35 40.3267 31.87 38.81C32.4333 37.25 32.715 35.69 32.715 34.13C32.715 31.66 32.1733 29.6883 31.09 28.215C30.05 26.7417 28.7933 25.615 27.32 24.835C25.8467 24.055 24.33 23.535 22.77 23.275C21.21 23.015 19.9533 22.8633 19 22.82V22.56C20.5167 22.56 21.9467 22.2783 23.29 21.715C24.6333 21.1083 25.8033 20.35 26.8 19.44C27.84 18.4867 28.6633 17.4033 29.27 16.19C29.8767 14.9333 30.18 13.6117 30.18 12.225C30.18 11.0117 29.92 9.77667 29.4 8.52C28.88 7.26333 28.0783 6.115 26.995 5.075C25.955 4.035 24.59 3.19 22.9 2.54C21.2533 1.84666 19.3033 1.5 17.05 1.5H0.8V47ZM6.715 44.14V24.25H13.865C15.9883 24.25 17.83 24.5317 19.39 25.095C20.95 25.6583 22.2283 26.4167 23.225 27.37C24.265 28.3233 25.0233 29.4283 25.5 30.685C26.02 31.9417 26.28 33.2633 26.28 34.65C26.28 36.1667 25.9983 37.51 25.435 38.68C24.915 39.85 24.2 40.8467 23.29 41.67C22.38 42.4933 21.2967 43.1217 20.04 43.555C18.8267 43.945 17.5267 44.14 16.14 44.14H6.715ZM6.715 21.39V4.36H14.645C16.335 4.36 17.765 4.59833 18.935 5.075C20.1483 5.55167 21.1233 6.18 21.86 6.96C22.64 7.74 23.2033 8.62833 23.55 9.625C23.8967 10.6217 24.07 11.6183 24.07 12.615C24.07 13.8717 23.81 15.0417 23.29 16.125C22.8133 17.2083 22.12 18.14 21.21 18.92C20.3433 19.7 19.325 20.3067 18.155 20.74C17.0283 21.1733 15.815 21.39 14.515 21.39H6.715ZM43.2536 14.5V47H48.7786V14.5H43.2536ZM42.4736 4.23C42.4736 5.18333 42.8203 6.00666 43.5136 6.7C44.207 7.39333 45.0303 7.74 45.9836 7.74C46.937 7.74 47.7603 7.39333 48.4536 6.7C49.147 6.00666 49.4936 5.18333 49.4936 4.23C49.4936 3.27667 49.147 2.45333 48.4536 1.76C47.7603 1.06667 46.937 0.719999 45.9836 0.719999C45.0303 0.719999 44.207 1.06667 43.5136 1.76C42.8203 2.45333 42.4736 3.27667 42.4736 4.23ZM92.8888 30.815C92.8888 33.0683 92.4988 35.235 91.7188 37.315C90.9388 39.3517 89.8121 41.15 88.3388 42.71C86.9088 44.27 85.1538 45.505 83.0738 46.415C81.0371 47.325 78.7404 47.78 76.1838 47.78C73.5838 47.78 71.2221 47.325 69.0988 46.415C67.0188 45.4617 65.2421 44.205 63.7688 42.645C62.3388 41.085 61.2121 39.2867 60.3888 37.25C59.6088 35.17 59.2188 33.025 59.2188 30.815C59.2188 28.5617 59.6088 26.4167 60.3888 24.38C61.2121 22.3 62.3388 20.48 63.7688 18.92C65.2421 17.36 67.0188 16.125 69.0988 15.215C71.2221 14.2617 73.5838 13.785 76.1838 13.785C78.7404 13.785 81.0371 14.2617 83.0738 15.215C85.1538 16.125 86.9088 17.36 88.3388 18.92C89.8121 20.48 90.9388 22.3 91.7188 24.38C92.4988 26.4167 92.8888 28.5617 92.8888 30.815ZM86.7138 30.815C86.7138 27.7817 86.3888 25.3333 85.7388 23.47C85.0888 21.5633 84.2438 20.09 83.2038 19.05C82.1638 18.01 81.0154 17.3167 79.7588 16.97C78.5021 16.58 77.2888 16.385 76.1188 16.385C74.9488 16.385 73.7354 16.58 72.4788 16.97C71.2221 17.3167 70.0521 18.01 68.9688 19.05C67.9288 20.09 67.0621 21.5633 66.3688 23.47C65.7188 25.3333 65.3938 27.7817 65.3938 30.815C65.3938 33.805 65.7188 36.2533 66.3688 38.16C67.0621 40.0233 67.9288 41.475 68.9688 42.515C70.0521 43.555 71.2221 44.27 72.4788 44.66C73.7354 45.0067 74.9488 45.18 76.1188 45.18C77.2888 45.18 78.5021 45.0067 79.7588 44.66C81.0154 44.27 82.1638 43.555 83.2038 42.515C84.2438 41.475 85.0888 40.0233 85.7388 38.16C86.3888 36.2533 86.7138 33.805 86.7138 30.815ZM98.0994 14.5V17.1H103.754V47H109.279V17.1H117.144V14.5H109.279V9.04C109.279 8.52 109.301 7.91333 109.344 7.22C109.388 6.48333 109.518 5.81167 109.734 5.205C109.951 4.555 110.276 4.01333 110.709 3.58C111.186 3.14666 111.836 2.93 112.659 2.93C113.699 2.93 114.544 3.36333 115.194 4.23C115.888 5.09667 116.451 5.985 116.884 6.895L119.744 3.84C118.704 2.8 117.621 2.02 116.494 1.5C115.411 0.979998 114.176 0.719999 112.789 0.719999C111.663 0.719999 110.558 0.914999 109.474 1.305C108.391 1.695 107.416 2.30167 106.549 3.125C105.726 3.905 105.054 4.92333 104.534 6.18C104.014 7.43666 103.754 8.91 103.754 10.6V14.5H98.0994ZM136.923 13.785C140.086 13.785 142.534 14.24 144.268 15.15C146.001 16.0167 147.258 17.165 148.038 18.595C148.861 20.025 149.338 21.6717 149.468 23.535C149.598 25.3983 149.663 27.305 149.663 29.255V47H144.398V43.815C143.141 45.0283 141.538 46.0033 139.588 46.74C137.638 47.4333 135.688 47.78 133.738 47.78C131.874 47.78 130.228 47.455 128.798 46.805C127.368 46.155 126.176 45.31 125.223 44.27C124.269 43.23 123.554 42.06 123.078 40.76C122.601 39.46 122.363 38.1383 122.363 36.795C122.363 35.4083 122.623 34.0217 123.143 32.635C123.663 31.2483 124.443 30.0133 125.483 28.93C126.523 27.8033 127.801 26.8933 129.318 26.2C130.834 25.5067 132.568 25.16 134.518 25.16C136.468 25.16 138.309 25.55 140.043 26.33C141.819 27.0667 143.271 28.1283 144.398 29.515V26.72C144.398 23.1667 143.856 20.5233 142.773 18.79C141.733 17.0567 139.804 16.19 136.988 16.19C135.774 16.19 134.713 16.3417 133.803 16.645C132.893 16.9483 132.069 17.3817 131.333 17.945C130.639 18.465 129.989 19.1367 129.383 19.96C128.776 20.74 128.169 21.6283 127.563 22.625L124.183 19.245C124.789 18.595 125.418 17.945 126.068 17.295C126.761 16.645 127.584 16.06 128.538 15.54C129.534 15.02 130.704 14.6083 132.048 14.305C133.391 13.9583 135.016 13.785 136.923 13.785ZM144.398 34.13C144.181 33.61 143.856 33.0033 143.423 32.31C143.033 31.6167 142.513 30.945 141.863 30.295C141.213 29.645 140.433 29.1033 139.523 28.67C138.613 28.1933 137.529 27.955 136.273 27.955C135.016 27.955 133.868 28.215 132.828 28.735C131.788 29.2117 130.899 29.8617 130.163 30.685C129.469 31.465 128.928 32.3967 128.538 33.48C128.148 34.5633 127.953 35.69 127.953 36.86C127.953 38.2467 128.191 39.46 128.668 40.5C129.188 41.4967 129.838 42.3633 130.618 43.1C131.398 43.7933 132.264 44.3133 133.218 44.66C134.171 45.0067 135.081 45.18 135.948 45.18C136.771 45.18 137.594 45.0283 138.418 44.725C139.284 44.4217 140.086 44.01 140.823 43.49C141.603 42.9267 142.296 42.2767 142.903 41.54C143.509 40.8033 144.008 40.0017 144.398 39.135V34.13ZM176.38 44.4C174.82 44.4 173.304 44.1617 171.83 43.685C170.4 43.2083 169.122 42.45 167.995 41.41C166.869 40.3267 165.959 38.9183 165.265 37.185C164.615 35.4083 164.29 33.2417 164.29 30.685C164.29 28.0417 164.659 25.81 165.395 23.99C166.132 22.1267 167.042 20.6533 168.125 19.57C169.252 18.4433 170.487 17.6417 171.83 17.165C173.174 16.645 174.452 16.385 175.665 16.385C177.659 16.385 179.392 16.905 180.865 17.945C182.339 18.985 183.314 20.2633 183.79 21.78H188.275C187.842 20.22 187.149 18.9417 186.195 17.945C185.242 16.905 184.137 16.0817 182.88 15.475C181.667 14.825 180.345 14.3917 178.915 14.175C177.529 13.915 176.185 13.785 174.885 13.785C172.155 13.785 169.75 14.24 167.67 15.15C165.59 16.0167 163.835 17.2083 162.405 18.725C160.975 20.2417 159.892 22.0183 159.155 24.055C158.462 26.0917 158.115 28.2583 158.115 30.555C158.115 32.9817 158.505 35.2567 159.285 37.38C160.065 39.46 161.17 41.28 162.6 42.84C164.074 44.3567 165.829 45.57 167.865 46.48C169.902 47.3467 172.199 47.78 174.755 47.78C177.615 47.78 180.107 47.3033 182.23 46.35C184.397 45.3967 186.217 44.3567 187.69 43.23L185.805 40.76C184.289 42.0167 182.772 42.9483 181.255 43.555C179.782 44.1183 178.157 44.4 176.38 44.4ZM224.282 32.18V30.815C224.282 27.9117 223.87 25.3983 223.047 23.275C222.223 21.1517 221.097 19.3967 219.667 18.01C218.28 16.6233 216.655 15.5833 214.792 14.89C212.928 14.1967 210.957 13.85 208.877 13.85C206.667 13.85 204.63 14.24 202.767 15.02C200.903 15.7567 199.278 16.8617 197.892 18.335C196.505 19.765 195.422 21.52 194.642 23.6C193.862 25.6367 193.472 27.955 193.472 30.555C193.472 32.7217 193.797 34.845 194.447 36.925C195.14 38.9617 196.158 40.8033 197.502 42.45C198.888 44.0533 200.622 45.3533 202.702 46.35C204.825 47.3033 207.317 47.78 210.177 47.78C212.95 47.78 215.507 47.3033 217.847 46.35C220.187 45.3533 222.223 43.945 223.957 42.125L221.877 40.045C220.967 40.825 220.1 41.54 219.277 42.19C218.497 42.84 217.695 43.3817 216.872 43.815C216.048 44.2483 215.182 44.595 214.272 44.855C213.405 45.0717 212.43 45.18 211.347 45.18C210.133 45.18 208.833 45.0067 207.447 44.66C206.103 44.27 204.847 43.5983 203.677 42.645C202.507 41.6917 201.532 40.37 200.752 38.68C199.972 36.99 199.582 34.8233 199.582 32.18H224.282ZM199.582 29.58C199.582 27.8467 199.755 26.1783 200.102 24.575C200.492 22.9283 201.055 21.4767 201.792 20.22C202.572 18.9633 203.547 17.9667 204.717 17.23C205.887 16.45 207.273 16.06 208.877 16.06C211.953 16.06 214.337 17.2733 216.027 19.7C217.76 22.0833 218.627 25.3767 218.627 29.58H199.582Z" fill="#4F4A7D"/>
</svg>
